<svg xmlns="http://www.w3.org/2000/svg" width="56" height="58" viewBox="0 0 56 58">
    <path fill="#4CD566" fill-rule="nonzero" d="M18.507 18.608c0-.834.669-1.51 1.494-1.51H36c.825 0 1.494.676 1.494 1.51 0 .835-.669 1.51-1.494 1.51H20a1.503 1.503 0 0 1-1.494-1.51zM20 26.197H36c.825 0 1.494-.677 1.494-1.51 0-.835-.669-1.511-1.494-1.511H20c-.825 0-1.494.676-1.494 1.51s.669 1.51 1.494 1.51zm12.44 4.573c0-.834-.668-1.51-1.494-1.51H20.001c-.825 0-1.494.676-1.494 1.51s.669 1.51 1.494 1.51h10.952c.826 0 1.495-.676 1.495-1.51h-.006zM27.032.562l-5.978 5.123a1.522 1.522 0 0 0-.176 2.13 1.485 1.485 0 0 0 2.107.178L28 3.703 33.034 8c.408.349.969.45 1.471.268a1.52 1.52 0 0 0 .46-2.576L28.986.568a1.483 1.483 0 0 0-1.948.006l-.006-.012zm27.937 22.203c.337.287.532.709.532 1.154v28.535c-.003 2.941-2.362 5.325-5.273 5.328H5.773C2.863 57.78.503 55.395.5 52.454V23.919c0-.445.195-.867.532-1.154l5.632-4.773a1.485 1.485 0 0 1 2.107.178c.533.638.454 1.591-.176 2.13L4.41 23.852l6.468 4.622v-14.5c0-2.138 1.716-3.872 3.832-3.872h26.598c2.116 0 3.832 1.734 3.832 3.872v14.5l6.474-4.628-4.149-3.54a1.522 1.522 0 0 1-.176-2.13 1.485 1.485 0 0 1 2.107-.178l5.572 4.767zm-41.119 7.854L28 40.733l14.15-10.114V14a.847.847 0 0 0-.842-.852H14.692a.847.847 0 0 0-.843.852v16.62zm38.662-3.71L35.622 38.994l12.106 9.34c.66.5.794 1.448.3 2.115a1.484 1.484 0 0 1-2.093.302l-12.871-9.939-4.185 3.021c-.518.37-1.21.37-1.728 0l-4.185-3.02-12.865 9.938c-.66.5-1.597.365-2.092-.302a1.521 1.521 0 0 1 .299-2.115l12.07-9.352L3.489 26.91v25.544c.003 1.273 1.024 2.304 2.284 2.308h44.454c1.26-.004 2.28-1.035 2.284-2.308V26.91z"/>
</svg>
